<?xml version="1.0" encoding="UTF-8"?>
<svg version="1.1" xmlns="http://www.w3.org/2000/svg" width="76" height="77">
<path d="M0 0 C3.2749302 0.02785481 5.91582687 0.08710447 8.50830078 2.27001953 C9.96187757 3.97630222 11.27185027 5.72994209 12.5625 7.5625 C13.26693237 8.51334473 13.26693237 8.51334473 13.9855957 9.48339844 C14.91480743 10.74033111 15.83621233 12.00307942 16.74902344 13.27197266 C18.34240305 15.47297595 20.01641642 17.60768668 21.6875 19.75 C24 23 24 23 24 25 C25.98 25.66 27.96 26.32 30 27 C31.51041966 25.48958034 31.40459247 23.83626148 31.75 21.75 C32.75578001 17.18026039 33.99569498 14.69855338 38 12 C40.90910136 11.47513334 42.99332792 11.65497206 46 12 C46.99 12.99 46.99 12.99 48 14 C47.79402975 16.81492674 47.27537538 19.30855223 46.22924805 21.93530273 C43.76167172 28.15393829 44.01132256 32.969025 45 39.5 C46.09206031 46.71389838 46.33374243 52.33251514 43 59 C38.04026804 65.63187016 32.27643603 69.93089099 24.25 71.9375 C17.61923403 72.49111234 12.28042926 69.83197665 7.19921875 65.75 C4.41041703 63.21963496 1.70080607 60.62375605 -1 58 C-2.40675536 56.73885616 -3.82236956 55.48746345 -5.25 54.25 C-5.87648438 53.7034375 -6.50296875 53.156875 -7.1484375 52.59375 C-8.41707643 51.501757 -9.69356228 50.41883319 -10.9765625 49.34375 C-11.60304688 48.8178125 -12.22953125 48.291875 -12.875 47.75 C-13.42929688 47.29109375 -13.98359375 46.8321875 -14.5546875 46.359375 C-16.78002366 44.26635612 -17.92113162 42.5257892 -18.375 39.5 C-18 37 -18 37 -16.1875 35.1875 C-14 34 -14 34 -11 34 C-11.49371094 33.51789062 -11.98742187 33.03578125 -12.49609375 32.5390625 C-13.13675781 31.90742187 -13.77742187 31.27578125 -14.4375 30.625 C-15.39462891 29.68527344 -15.39462891 29.68527344 -16.37109375 28.7265625 C-18.62438244 26.33818456 -18.97946302 25.3285917 -19.1875 22 C-19 19 -19 19 -17 17 C-14.375 16.375 -14.375 16.375 -12 16 C-12.495 15.484375 -12.99 14.96875 -13.5 14.4375 C-15.5390434 11.12405448 -15.42431591 8.81884318 -15 5 C-12 3 -12 3 -9.5625 3.1875 C-6.84920103 4.04781431 -5.15386671 5.16522465 -3 7 C-2.690625 6.030625 -2.38125 5.06125 -2.0625 4.0625 C-1 1 -1 1 0 0 Z M0 11 C1 13 1 13 1 13 Z " fill="#FCE2C5" transform="translate(28,5)"/>
<path d="M0 0 C3.59059847 3.44494809 6.60909106 6.97309111 9.5625 11 C11.74970219 13.97186572 13.92355332 16.90768703 16.27734375 19.75 C18 22 18 22 18 24 C19.98 24.66 21.96 25.32 24 26 C25.51041966 24.48958034 25.40459247 22.83626148 25.75 20.75 C26.75578001 16.18026039 27.99569498 13.69855338 32 11 C34.90910136 10.47513334 36.99332792 10.65497206 40 11 C40.99 11.99 40.99 11.99 42 13 C41.79402975 15.81492674 41.27537538 18.30855223 40.22924805 20.93530273 C37.76167172 27.15393829 38.01132256 31.969025 39 38.5 C40.09206031 45.71389838 40.33374243 51.33251514 37 58 C32.04026804 64.63187016 26.27643603 68.93089099 18.25 70.9375 C11.61923403 71.49111234 6.28042926 68.83197665 1.19921875 64.75 C-1.58958297 62.21963496 -4.29919393 59.62375605 -7 57 C-8.40675536 55.73885616 -9.82236956 54.48746345 -11.25 53.25 C-11.87648438 52.7034375 -12.50296875 52.156875 -13.1484375 51.59375 C-14.41707643 50.501757 -15.69356228 49.41883319 -16.9765625 48.34375 C-17.60304688 47.8178125 -18.22953125 47.291875 -18.875 46.75 C-19.42929687 46.29109375 -19.98359375 45.8321875 -20.5546875 45.359375 C-22.78002366 43.26635612 -23.92113162 41.5257892 -24.375 38.5 C-24 36 -24 36 -22.1875 34.1875 C-20 33 -20 33 -17 33 C-17.49371094 32.51789062 -17.98742187 32.03578125 -18.49609375 31.5390625 C-19.13675781 30.90742187 -19.77742188 30.27578125 -20.4375 29.625 C-21.39462891 28.68527344 -21.39462891 28.68527344 -22.37109375 27.7265625 C-24.62438244 25.33818456 -24.97946302 24.3285917 -25.1875 21 C-25 18 -25 18 -23 16 C-20.375 15.375 -20.375 15.375 -18 15 C-18.99 13.35 -19.98 11.7 -21 10 C-20.01 10 -19.02 10 -18 10 C-15.9140625 12.1953125 -15.9140625 12.1953125 -13.625 15.125 C-12.83480469 16.12660156 -12.04460938 17.12820312 -11.23046875 18.16015625 C-10.12638672 19.56587891 -10.12638672 19.56587891 -9 21 C-7.98492276 22.19242406 -6.96556553 23.38125565 -5.9375 24.5625 C-4 27 -4 27 -4 29 C-3.05125 29.103125 -2.1025 29.20625 -1.125 29.3125 C2 30 2 30 4 33 C4 34.32 4 35.64 4 37 C-0.92157911 36.59363108 -3.54092159 34.11345341 -6.9375 30.8125 C-7.46529053 30.31508301 -7.99308105 29.81766602 -8.53686523 29.30517578 C-11.26987286 26.71698843 -13.93734373 24.07271084 -16.5625 21.375 C-18.83938691 18.8115594 -18.83938691 18.8115594 -22 18 C-19.45942904 22.79885625 -17.02186264 26.27241999 -13 30 C-9.49991156 33.25589622 -7.71611274 35.58713867 -6 40 C-4.515 40.495 -4.515 40.495 -3 41 C-1 44 -1 44 -1 48 C-6.38521682 47.39178728 -9.57192986 42.84751235 -13.24609375 39.25 C-16.01317376 36.98923676 -17.49795875 36.305078 -21 36 C-19.76044505 39.71866485 -17.81445146 41.32283886 -15 44 C-14.34 44.66 -13.68 45.32 -13 46 C-12.34 46.144375 -11.68 46.28875 -11 46.4375 C-9 47 -9 47 -7 50 C-6.38125 50.2475 -5.7625 50.495 -5.125 50.75 C-3 52 -3 52 -1.25 55.25 C1.20197673 59.78330581 4.37385718 62.71479692 9 65 C12.59962614 65.9680154 15.40869147 66.02847071 19 65 C22.44113686 62.72229513 25.1837097 59.99996141 28 57 C28.97711129 56.0395711 29.95586384 55.08080363 30.9375 54.125 C31.618125 53.42375 32.29875 52.7225 33 52 C33.66 51.34 34.32 50.68 35 50 C35.22893503 47.13287664 35.22893503 47.13287664 35.08984375 43.78515625 C35.05987305 41.92020508 35.05987305 41.92020508 35.02929688 40.01757812 C34.9681874 37.38466988 34.90309465 34.75185101 34.83398438 32.11914062 C34.80594727 30.25225586 34.80594727 30.25225586 34.77734375 28.34765625 C34.74890381 27.20304932 34.72046387 26.05844238 34.69116211 24.87915039 C35.04130579 21.61492559 35.61786279 21.07150807 38 19 C38.25048636 15.87450983 38.25048636 15.87450983 38 13 C34.62537285 13.54723683 32.91765 14.0549 30 16 C29.27713724 18.08623811 29.27713724 18.08623811 28.9375 20.4375 C28.36575164 23.74275006 27.92994213 25.10508681 26 28 C23.296875 28.60546875 23.296875 28.60546875 20 28 C17.40461168 26.07162951 15.36505586 23.74602979 13.25 21.3125 C12.67378906 20.68666016 12.09757812 20.06082031 11.50390625 19.41601562 C8.51152334 16.08533302 6.45826885 13.28642661 5 9 C4.16773047 7.7415076 3.29441148 6.50881026 2.375 5.3125 C0 2.21676301 0 2.21676301 0 0 Z " fill="#DDA782" transform="translate(34,6)"/>
<path d="M0 0 C2.6640625 0.3515625 2.6640625 0.3515625 4.578125 2.328125 C5.14273438 3.20210938 5.70734375 4.07609375 6.2890625 4.9765625 C6.85882813 5.83507812 7.42859375 6.69359375 8.015625 7.578125 C9.6640625 10.3515625 9.6640625 10.3515625 11.01953125 13.2890625 C13.00599673 16.98832364 15.46587261 19.71055114 18.3515625 22.7265625 C18.86267578 23.27183594 19.37378906 23.81710938 19.90039062 24.37890625 C21.1487677 25.70895285 22.40555811 27.0310944 23.6640625 28.3515625 C20.6640625 28.3515625 20.6640625 28.3515625 19.05859375 26.8203125 C18.53652344 26.170625 18.01445313 25.5209375 17.4765625 24.8515625 C16.94675781 24.201875 16.41695312 23.5521875 15.87109375 22.8828125 C15.47277344 22.3775 15.07445312 21.8721875 14.6640625 21.3515625 C13.6740625 21.6815625 12.6840625 22.0115625 11.6640625 22.3515625 C11.9940625 22.9290625 12.3240625 23.5065625 12.6640625 24.1015625 C13.6640625 26.3515625 13.6640625 26.3515625 13.6640625 30.3515625 C9.77492986 29.7753947 7.65351266 27.79032447 4.6640625 25.3515625 C4.0040625 25.3515625 3.3440625 25.3515625 2.6640625 25.3515625 C2.3340625 27.0015625 2.0040625 28.6515625 1.6640625 30.3515625 C1.0040625 30.3515625 0.3440625 30.3515625 -0.3359375 30.3515625 C-1.5625 28.91796875 -1.5625 28.91796875 -2.9609375 26.9140625 C-5.96504059 22.74252331 -9.29781617 18.99553562 -12.796875 15.234375 C-14.3359375 13.3515625 -14.3359375 13.3515625 -14.3359375 11.3515625 C-15.3259375 11.3515625 -16.3159375 11.3515625 -17.3359375 11.3515625 C-17.5234375 8.4765625 -17.5234375 8.4765625 -17.3359375 5.3515625 C-14.3359375 3.3515625 -14.3359375 3.3515625 -11.8984375 3.5390625 C-9.18513853 4.39937681 -7.48980421 5.51678715 -5.3359375 7.3515625 C-5.0265625 6.3821875 -4.7171875 5.4128125 -4.3984375 4.4140625 C-3.02497682 0.45526407 -3.02497682 0.45526407 0 0 Z M-2.3359375 11.3515625 C-1.3359375 13.3515625 -1.3359375 13.3515625 -1.3359375 13.3515625 Z " fill="#F9DABB" transform="translate(30.3359375,4.6484375)"/>
<path d="M0 0 C0.99 0 1.98 0 3 0 C5.0859375 2.1953125 5.0859375 2.1953125 7.375 5.125 C8.56029297 6.62740234 8.56029297 6.62740234 9.76953125 8.16015625 C10.50558594 9.09730469 11.24164063 10.03445312 12 11 C13.01507724 12.19242406 14.03443447 13.38125565 15.0625 14.5625 C17 17 17 17 17 19 C17.94875 19.103125 18.8975 19.20625 19.875 19.3125 C23 20 23 20 25 23 C25 24.32 25 25.64 25 27 C20.07842089 26.59363108 17.45907841 24.11345341 14.0625 20.8125 C13.53470947 20.31508301 13.00691895 19.81766602 12.46313477 19.30517578 C9.73012714 16.71698843 7.06265627 14.07271084 4.4375 11.375 C2.16061309 8.8115594 2.16061309 8.8115594 -1 8 C1.54057096 12.79885625 3.97813736 16.27241999 8 20 C11.50008844 23.25589622 13.28388726 25.58713867 15 30 C15.99 30.33 16.98 30.66 18 31 C20 34 20 34 20 38 C14.61478318 37.39178728 11.42807014 32.84751235 7.75390625 29.25 C4.98682624 26.98923676 3.50204125 26.305078 0 26 C1.23955495 29.71866485 3.18554854 31.32283886 6 34 C6.66 34.66 7.32 35.32 8 36 C8.66 36.144375 9.32 36.28875 10 36.4375 C12 37 12 37 14 40 C14.61875 40.2475 15.2375 40.495 15.875 40.75 C18.68370524 42.40217955 19.58652426 44.40727576 21.0703125 47.24609375 C22.09791729 49.25566677 22.09791729 49.25566677 24 52 C20.63820226 50.55922954 18.40843732 48.75249979 16 46 C16 45.34 16 44.68 16 44 C14.88431641 43.62294922 14.88431641 43.62294922 13.74609375 43.23828125 C10.79264824 41.90649999 9.2612145 40.53909036 7.0625 38.1875 C3.86617565 34.85774275 0.60212313 31.88169851 -3 29 C-2.8125 27.125 -2.8125 27.125 -2 25 C0.5625 23.75 0.5625 23.75 3 23 C2.1028125 21.88625 2.1028125 21.88625 1.1875 20.75 C0.465625 19.8425 -0.25625 18.935 -1 18 C-1.5775 17.360625 -2.155 16.72125 -2.75 16.0625 C-4.45828097 13.2438364 -4.35154759 11.23423787 -4 8 C-1.64046906 5.64046906 -0.22104383 5.50858587 3 5 C2.01 3.35 1.02 1.7 0 0 Z " fill="#EDC39F" transform="translate(13,16)"/>
<path d="M0 0 C0.53625 0.2475 1.0725 0.495 1.625 0.75 C1.875 6.375 1.875 6.375 -0.375 9.75 C-1.035 9.75 -1.695 9.75 -2.375 9.75 C-2.26671875 10.89662109 -2.26671875 10.89662109 -2.15625 12.06640625 C-1.84786586 15.62567317 -1.60166134 19.18458116 -1.375 22.75 C-1.32746582 23.41241699 -1.27993164 24.07483398 -1.23095703 24.75732422 C-0.46758606 36.32533055 -0.46758606 36.32533055 -2.57421875 39.6328125 C-4.125 40.875 -4.125 40.875 -7.375 42.75 C-8.014375 43.554375 -8.65375 44.35875 -9.3125 45.1875 C-15.61601827 53.01914391 -15.61601827 53.01914391 -20.734375 54.375 C-27.21787772 54.85824244 -30.82063296 52.61014478 -35.66015625 48.4765625 C-37.375 46.75 -37.375 46.75 -38.375 44.75 C-37.055 45.08 -35.735 45.41 -34.375 45.75 C-34.375 46.41 -34.375 47.07 -34.375 47.75 C-27.05933933 48.86558732 -27.05933933 48.86558732 -19.875 47.625 C-17.25423641 45.9050633 -17.25423641 45.9050633 -15.875 43.25 C-13.92786666 40.00477776 -11.74585109 39.32784519 -8.375 37.75 C-5.90536827 34.04555241 -6.11380206 31.21585951 -6.1875 26.9375 C-6.18814453 26.23818359 -6.18878906 25.53886719 -6.18945312 24.81835938 C-6.22413722 20.6986595 -6.58198418 16.7912086 -7.375 12.75 C-7.9009375 13.74 -7.9009375 13.74 -8.4375 14.75 C-10.375 16.75 -10.375 16.75 -14.0625 17 C-15.155625 16.9175 -16.24875 16.835 -17.375 16.75 C-17.375 16.42 -17.375 16.09 -17.375 15.75 C-15.395 15.75 -13.415 15.75 -11.375 15.75 C-11.22804688 14.93015625 -11.08109375 14.1103125 -10.9296875 13.265625 C-8.86812592 3.36065097 -8.86812592 3.36065097 -5.4375 0.9375 C-2.375 -0.25 -2.375 -0.25 0 0 Z " fill="#F2CDAB" transform="translate(71.375,18.25)"/>
<path d="M0 0 C3.59059847 3.44494809 6.60909106 6.97309111 9.5625 11 C11.74970219 13.97186572 13.92355332 16.90768703 16.27734375 19.75 C18 22 18 22 18 24 C19.98 24.66 21.96 25.32 24 26 C25.51041966 24.48958034 25.40459247 22.83626148 25.75 20.75 C26.75578001 16.18026039 27.99569498 13.69855338 32 11 C34.90910136 10.47513334 36.99332792 10.65497206 40 11 C40.66 11.66 41.32 12.32 42 13 C41.61758697 18.22631136 39.73400453 23.09244 38 28 C37.34 28 36.68 28 36 28 C36.15597656 29.08539063 36.31195313 30.17078125 36.47265625 31.2890625 C36.66973568 32.73431169 36.86632427 34.17962787 37.0625 35.625 C37.16626953 36.33785156 37.27003906 37.05070312 37.37695312 37.78515625 C37.95108834 42.10106924 37.97103611 45.69484691 37 50 C36.67 50 36.34 50 36 50 C35.42609019 42.59041447 34.91755973 35.18127408 34.75 27.75 C34.72421875 26.71359375 34.6984375 25.6771875 34.671875 24.609375 C35.0548431 21.56386678 35.78631414 20.98249151 38 19 C38.25048636 15.87450983 38.25048636 15.87450983 38 13 C34.62537285 13.54723683 32.91765 14.0549 30 16 C29.27713724 18.08623811 29.27713724 18.08623811 28.9375 20.4375 C28.36575164 23.74275006 27.92994213 25.10508681 26 28 C23.296875 28.60546875 23.296875 28.60546875 20 28 C17.40461168 26.07162951 15.36505586 23.74602979 13.25 21.3125 C12.67378906 20.68666016 12.09757812 20.06082031 11.50390625 19.41601562 C8.51152334 16.08533302 6.45826885 13.28642661 5 9 C4.16773047 7.7415076 3.29441148 6.50881026 2.375 5.3125 C0 2.21676301 0 2.21676301 0 0 Z " fill="#E7BA96" transform="translate(34,6)"/>
<path d="M0 0 C2.6640625 0.3515625 2.6640625 0.3515625 4.578125 2.328125 C5.14273438 3.20210938 5.70734375 4.07609375 6.2890625 4.9765625 C6.85882813 5.83507812 7.42859375 6.69359375 8.015625 7.578125 C9.6640625 10.3515625 9.6640625 10.3515625 11.01953125 13.2890625 C13.00599673 16.98832364 15.46587261 19.71055114 18.3515625 22.7265625 C18.86267578 23.27183594 19.37378906 23.81710938 19.90039062 24.37890625 C21.1487677 25.70895285 22.40555811 27.0310944 23.6640625 28.3515625 C20.6640625 28.3515625 20.6640625 28.3515625 19.05859375 26.8203125 C18.27548828 25.84578125 18.27548828 25.84578125 17.4765625 24.8515625 C16.94675781 24.201875 16.41695312 23.5521875 15.87109375 22.8828125 C15.47277344 22.3775 15.07445313 21.8721875 14.6640625 21.3515625 C11.54621137 21.99800911 11.54621137 21.99800911 10.6640625 24.3515625 C7.0344469 20.26824495 3.59670673 16.07593809 0.2890625 11.7265625 C-0.39929688 10.82679687 -1.08765625 9.92703125 -1.796875 9 C-3.47079165 6.11950384 -3.76047473 4.62164658 -3.3359375 1.3515625 C-2.3359375 0.3515625 -2.3359375 0.3515625 0 0 Z " fill="#F4D1B0" transform="translate(30.3359375,4.6484375)"/>
<path d="M0 0 C0.53625 0.2475 1.0725 0.495 1.625 0.75 C1.4375 3.0625 1.4375 3.0625 0.625 5.75 C-0.220625 6.20375 -1.06625 6.6575 -1.9375 7.125 C-3.1440625 7.929375 -3.1440625 7.929375 -4.375 8.75 C-4.7357834 12.17744229 -4.93438978 14.63122044 -3.375 17.75 C-3.25054225 20.22178874 -3.1898408 22.65311169 -3.1875 25.125 C-3.17525391 25.79789063 -3.16300781 26.47078125 -3.15039062 27.1640625 C-3.13945198 30.86861843 -3.33472135 33.60490643 -5.375 36.75 C-7.15861662 33.18276677 -6.40808172 28.80626167 -6.3359375 24.8671875 C-6.28949942 20.70323968 -6.5487145 16.85560609 -7.375 12.75 C-7.725625 13.41 -8.07625 14.07 -8.4375 14.75 C-10.375 16.75 -10.375 16.75 -14.0625 17 C-15.155625 16.9175 -16.24875 16.835 -17.375 16.75 C-17.375 16.42 -17.375 16.09 -17.375 15.75 C-15.395 15.75 -13.415 15.75 -11.375 15.75 C-11.22804688 14.93015625 -11.08109375 14.1103125 -10.9296875 13.265625 C-8.86812592 3.36065097 -8.86812592 3.36065097 -5.4375 0.9375 C-2.375 -0.25 -2.375 -0.25 0 0 Z " fill="#F6D4B4" transform="translate(71.375,18.25)"/>
<path d="M0 0 C2.5 0.75 2.5 0.75 5.5 2.75 C5.974375 3.86375 6.44875 4.9775 6.9375 6.125 C8.42701897 9.58068402 9.69392502 11.33096984 12.5 13.75 C12.17 14.41 11.84 15.07 11.5 15.75 C10.84 15.09 10.18 14.43 9.5 13.75 C8.736875 13.976875 7.97375 14.20375 7.1875 14.4375 C6.300625 14.540625 5.41375 14.64375 4.5 14.75 C1.41382062 12.22494414 -0.23289132 10.55132605 -1.5 6.75 C-2.16 6.75 -2.82 6.75 -3.5 6.75 C-3.5 5.43 -3.5 4.11 -3.5 2.75 C-4.16 2.42 -4.82 2.09 -5.5 1.75 C-2.5 -0.25 -2.5 -0.25 0 0 Z " fill="#F6D6B6" transform="translate(18.5,8.25)"/>
<path d="M0 0 C1.32 0 2.64 0 4 0 C5.45703125 1.79296875 5.45703125 1.79296875 6.8125 4.1875 C8.85994357 7.52834143 10.57320635 9.69134772 13.875 11.8125 C14.90625 12.534375 15.9375 13.25625 17 14 C17 15.32 17 16.64 17 18 C9.05423907 15.91896738 5.04526504 11.59517683 0.8828125 4.8671875 C0 3 0 3 0 0 Z " fill="#6C6C6C" transform="translate(0,50)"/>
<path d="M0 0 C0.66 0.33 1.32 0.66 2 1 C-2.17590233 7.84847982 -7.27613061 14.16266022 -15 17 C-21.43057871 18.45206616 -25.04379392 17.82136077 -31 15 C-31.33 14.34 -31.66 13.68 -32 13 C-31.28328125 13.15597656 -30.5665625 13.31195313 -29.828125 13.47265625 C-23.1635339 14.71536315 -17.16596945 15.23800124 -11.25 11.5 C-6.88597228 8.21321876 -3.3744989 4.27508864 0 0 Z " fill="#CB855E" transform="translate(71,59)"/>
<path d="M0 0 C4.89951853 0.70149706 7.06224232 3.83955208 10.16015625 7.43359375 C12.75238479 11.0495049 14.02198255 14.69061059 15 19 C12.75 19 12.75 19 10 18 C8.30407811 15.48773604 7.18204344 12.78218959 6 10 C4.47362637 6.60062605 3.51499627 5.40599851 0 4 C0 2.68 0 1.36 0 0 Z " fill="#6C6C6C" transform="translate(44,1)"/>
<path d="M0 0 C3.79478709 1.26492903 5.23120463 3.1053503 8 6 C9.18166684 7.23477546 10.36941304 8.46375556 11.5625 9.6875 C12.12066406 10.26886719 12.67882813 10.85023437 13.25390625 11.44921875 C14.93214942 13.07835931 14.93214942 13.07835931 17.02734375 13.99609375 C19.29971273 15.15252707 20.41039678 16.39663512 22 18.375 C24.21299835 21.06542185 26.4852137 23.58193625 29 26 C25.5413679 26 25.16217267 25.59424358 22.671875 23.40234375 C22.03636719 22.84740234 21.40085937 22.29246094 20.74609375 21.72070312 C20.08738281 21.13224609 19.42867187 20.54378906 18.75 19.9375 C18.10675781 19.37611328 17.46351562 18.81472656 16.80078125 18.23632812 C12.89141672 14.79498611 9.15020497 11.22473891 5.49682617 7.51318359 C4.21041257 6.21271198 2.88954075 4.94648738 1.5625 3.6875 C0 2 0 2 0 0 Z " fill="#D18A61" transform="translate(10,45)"/>
<path d="M0 0 C0.27457031 0.58394531 0.54914062 1.16789063 0.83203125 1.76953125 C1.96505672 3.93326885 3.20525871 5.75043399 4.6875 7.6875 C5.2134375 8.37585937 5.739375 9.06421875 6.28125 9.7734375 C6.8484375 10.50820313 7.415625 11.24296875 8 12 C8.6084375 12.79664063 9.216875 13.59328125 9.84375 14.4140625 C13.0235507 18.69175937 13.0235507 18.69175937 16.70703125 22.51171875 C18 24 18 24 18 28 C16.1875 27.875 16.1875 27.875 14 27 C12.96244882 25.01922047 11.97004121 23.01470098 11 21 C10.07605198 19.82626371 9.11489377 18.68118097 8.125 17.5625 C0.11518539 8.45133588 0.11518539 8.45133588 -0.3125 3.0625 C-0.209375 2.051875 -0.10625 1.04125 0 0 Z " fill="#D2986C" transform="translate(26,7)"/>
<path d="M0 0 C0.495 1.485 0.495 1.485 1 3 C-2.75 6 -2.75 6 -5 6 C-5.226875 6.556875 -5.45375 7.11375 -5.6875 7.6875 C-7.3592504 10.63296499 -9.58281215 12.64324185 -12 15 C-12.99 16.485 -12.99 16.485 -14 18 C-16.390625 18.328125 -16.390625 18.328125 -19.25 18.25 C-20.72146484 18.21132812 -20.72146484 18.21132812 -22.22265625 18.171875 C-25.20279162 17.98745031 -28.08040921 17.63126287 -31 17 C-31.33 15.35 -31.66 13.7 -32 12 C-30 13 -28 14 -26 15 C-21.37944732 15.8472469 -17.54677688 16.00200012 -13.515625 13.390625 C-11.22806754 11.3487113 -9.09823383 9.23507517 -7 7 C-6.02288871 6.0395711 -5.04413616 5.08080363 -4.0625 4.125 C-3.381875 3.42375 -2.70125 2.7225 -2 2 C-1.34 1.34 -0.68 0.68 0 0 Z " fill="#E0AD89" transform="translate(69,56)"/>
<path d="M0 0 C2.1875 0.0625 2.1875 0.0625 5 1 C6.40096601 2.67684854 7.54426012 4.44342756 8.73046875 6.27734375 C10.43736833 8.59347518 12.43787142 9.75553755 15 11 C14.67 11.99 14.34 12.98 14 14 C9.47053917 13.53280037 7.68243057 12.10680359 4.75 8.6875 C3.72132812 7.51767578 3.72132812 7.51767578 2.671875 6.32421875 C1.08049188 4.11189876 0.41388338 2.65980934 0 0 Z " fill="#656565" transform="translate(5,48)"/>
<path d="M0 0 C4.12083515 1.31053771 5.92841067 2.67737986 8.25 6.3125 C8.75015625 7.07175781 9.2503125 7.83101562 9.765625 8.61328125 C11.05095658 11.0985268 11.59032131 13.24442312 12 16 C10.68 16 9.36 16 8 16 C7.76925781 15.48050781 7.53851563 14.96101563 7.30078125 14.42578125 C5.09758071 9.71458958 2.8883021 6.45626853 -1 3 C-0.67 2.01 -0.34 1.02 0 0 Z " fill="#666666" transform="translate(41,6)"/>
<path d="M0 0 C0.99 0 1.98 0 3 0 C5.0859375 2.1953125 5.0859375 2.1953125 7.375 5.125 C8.56029297 6.62740234 8.56029297 6.62740234 9.76953125 8.16015625 C10.50558594 9.09730469 11.24164063 10.03445312 12 11 C13.01507724 12.19242406 14.03443447 13.38125565 15.0625 14.5625 C17 17 17 17 17 19 C17.61875 19.28875 18.2375 19.5775 18.875 19.875 C21 21 21 21 23 23 C22.67 23.99 22.34 24.98 22 26 C20.99403703 25.0479279 19.99538437 24.08812654 19 23.125 C18.443125 22.59132813 17.88625 22.05765625 17.3125 21.5078125 C16 20 16 20 16 18 C15.34 18 14.68 18 14 18 C12.50122497 16.34516392 11.07511527 14.62409488 9.6875 12.875 C8.88828125 11.8746875 8.0890625 10.874375 7.265625 9.84375 C6.51796875 8.9053125 5.7703125 7.966875 5 7 C3.98367648 5.78787103 2.96401993 4.57850612 1.9375 3.375 C0 1 0 1 0 0 Z " fill="#D08E69" transform="translate(13,16)"/>
<path d="M0 0 C1.12565123 1.12565123 2.25094657 2.25165949 3.375 3.37890625 C4.55742786 4.55849174 5.74572953 5.73219815 6.9375 6.90234375 C10.01080314 9.93490234 13.01175376 12.91928237 15.6875 16.3125 C17.95766556 18.95080052 19.92635012 20.41926577 23 22 C22.67 23.32 22.34 24.64 22 26 C18.66666667 22.66666667 15.33333333 19.33333333 12 16 C11.1440625 15.15050781 10.288125 14.30101562 9.40625 13.42578125 C7.28019741 11.28247173 5.2068182 9.11868689 3.1875 6.875 C2.58292969 6.21242188 1.97835938 5.54984375 1.35546875 4.8671875 C0 3 0 3 0 0 Z " fill="#D1936D" transform="translate(9,27)"/>
<path d="M0 0 C0.99 0 1.98 0 3 0 C3 0.66 3 1.32 3 2 C4.175625 2.309375 4.175625 2.309375 5.375 2.625 C8 4 8 4 9.3125 7.125 C9.6528125 8.548125 9.6528125 8.548125 10 10 C8.35 10.33 6.7 10.66 5 11 C5 10.34 5 9.68 5 9 C4.01 8.67 3.02 8.34 2 8 C-0.1519437 4.77208445 -0.20086443 3.71599191 0 0 Z " fill="#F8D9B9" transform="translate(29,7)"/>
<path d="M0 0 C2.1875 -0.375 2.1875 -0.375 5 0 C6.99022836 1.83961648 8.38989899 3.79186148 10 6 C9.34 6 8.68 6 8 6 C8.7763932 9.0745356 8.7763932 9.0745356 11 11 C7.21388773 10.45912682 5.44599233 8.88277668 3 6 C3 5.34 3 4.68 3 4 C2.01 3.67 1.02 3.34 0 3 C0 2.01 0 1.02 0 0 Z " fill="#F7D7B7" transform="translate(13,42)"/>
<path d="M0 0 C0 3 0 3 -1.6171875 5.04296875 C-5.72128261 8.94114906 -8.60055227 11.54853344 -14.4375 11.625 C-18.62396007 11.37603993 -18.62396007 11.37603993 -21 9 C-20.154375 8.93683594 -19.30875 8.87367187 -18.4375 8.80859375 C-10.2289982 7.92244867 -5.50958732 6.22533431 0 0 Z " fill="#EDC4A0" transform="translate(62,61)"/>
<path d="M0 0 C1.2065625 0.0309375 1.2065625 0.0309375 2.4375 0.0625 C3.0975 1.7125 3.7575 3.3625 4.4375 5.0625 C3.4475 4.7325 2.4575 4.4025 1.4375 4.0625 C1.4375 3.4025 1.4375 2.7425 1.4375 2.0625 C0.4475 2.0625 -0.5425 2.0625 -1.5625 2.0625 C-0.30444623 6.57052601 1.34157165 9.5537812 4.4375 13.0625 C4.1075 13.7225 3.7775 14.3825 3.4375 15.0625 C-0.93822212 10.66001505 -3.43249067 7.56296662 -3.5625 1.0625 C-2.5625 0.0625 -2.5625 0.0625 0 0 Z " fill="#EDC4A2" transform="translate(30.5625,4.9375)"/>
<path d="M0 0 C3.09892008 2.99303443 5.84782605 6.15603615 8.5625 9.5 C9.32691406 10.4384375 10.09132813 11.376875 10.87890625 12.34375 C12.62857492 14.53486362 14.33490145 16.74440324 16 19 C15.67 19.66 15.34 20.32 15 21 C12.87218083 18.56494843 10.7482432 16.12654203 8.625 13.6875 C7.72007813 12.65206055 7.72007813 12.65206055 6.796875 11.59570312 C5.92675781 10.59506836 5.92675781 10.59506836 5.0390625 9.57421875 C4.50490723 8.96151123 3.97075195 8.34880371 3.42041016 7.7175293 C0 3.58164318 0 3.58164318 0 0 Z " fill="#E6B88D" transform="translate(24,12)"/>
<path d="M0 0 C0.66 0 1.32 0 2 0 C1.54901762 1.93922422 1.08894441 3.87633594 0.625 5.8125 C0.36976562 6.89144531 0.11453125 7.97039063 -0.1484375 9.08203125 C-1 12 -1 12 -3 15 C-6.125 15.1875 -6.125 15.1875 -9 15 C-8.67 14.01 -8.34 13.02 -8 12 C-6.68 12 -5.36 12 -4 12 C-3.81824219 11.07767578 -3.81824219 11.07767578 -3.6328125 10.13671875 C-3.38144531 8.92435547 -3.38144531 8.92435547 -3.125 7.6875 C-2.96257813 6.88699219 -2.80015625 6.08648437 -2.6328125 5.26171875 C-2 3 -2 3 0 0 Z " fill="#DAA47D" transform="translate(63,19)"/>
<path d="M0 0 C4.54074179 1.42358391 7.03973147 3.72132073 10.3125 7.125 C11.19550781 8.03507812 12.07851563 8.94515625 12.98828125 9.8828125 C13.65214844 10.58148438 14.31601562 11.28015625 15 12 C15.66 11.34 16.32 10.68 17 10 C17 11.32 17 12.64 17 14 C12.67780041 13.5083754 10.43595718 10.90419657 7.375 8 C3.97137564 4.61733497 3.97137564 4.61733497 0 2 C0 1.34 0 0.68 0 0 Z " fill="#E5B28E" transform="translate(16,40)"/>
<path d="M0 0 C2.35926204 2.35926204 2.33157398 3.12400689 2.6328125 6.3515625 C2.71660156 7.20234375 2.80039063 8.053125 2.88671875 8.9296875 C2.96535156 9.81914063 3.04398437 10.70859375 3.125 11.625 C3.21136719 12.5221875 3.29773438 13.419375 3.38671875 14.34375 C3.5990924 16.5618748 3.80317085 18.78045069 4 21 C3.01 21 2.02 21 1 21 C1.020625 19.7625 1.04125 18.525 1.0625 17.25 C1.07171863 11.46991699 0.5448607 5.7502263 0 0 Z " fill="#D6A17E" transform="translate(70,34)"/>
<path d="M0 0 C2.31 1.98 4.62 3.96 7 6 C6.34 4.68 5.68 3.36 5 2 C4.67 1.34 4.34 0.68 4 0 C6.4375 0.625 6.4375 0.625 9 2 C9.8125 5.125 9.8125 5.125 10 8 C5.61999924 7.49942848 3.15830185 6.06806466 0 3 C0 2.01 0 1.02 0 0 Z " fill="#E7B996" transform="translate(28,35)"/>
<path d="M0 0 C0.66 0 1.32 0 2 0 C2 1.32 2 2.64 2 4 C2.66 4 3.32 4 4 4 C6.9672196 6.73897194 9.91316692 9.52194487 12 13 C11.67 13.99 11.34 14.98 11 16 C9.66072279 14.54712339 8.32873153 13.08752741 7 11.625 C6.2575 10.81289063 5.515 10.00078125 4.75 9.1640625 C3 7 3 7 3 5 C2.01 5 1.02 5 0 5 C0 3.35 0 1.7 0 0 Z " fill="#E9BC98" transform="translate(13,11)"/>
<path d="M0 0 C0.33 0.99 0.66 1.98 1 3 C-2.75 6 -2.75 6 -5 6 C-5.3403125 6.86625 -5.3403125 6.86625 -5.6875 7.75 C-7.33038023 10.5663661 -9.39533227 12.08077114 -12 14 C-12.66 13.67 -13.32 13.34 -14 13 C-13.55269531 12.62488281 -13.10539062 12.24976562 -12.64453125 11.86328125 C-8.92946521 8.71854517 -5.39646896 5.49351093 -2 2 C-1.34 1.34 -0.68 0.68 0 0 Z " fill="#E6B893" transform="translate(69,56)"/>
<path d="M0 0 C5.41314667 1.80438222 8.59843307 6.59056139 12 11 C7.64236704 10.4971962 5.08094266 7.94698863 2 5 C0.625 2.1875 0.625 2.1875 0 0 Z " fill="#CD906C" transform="translate(10,45)"/>
<path d="M0 0 C1.051875 -0.02126953 1.051875 -0.02126953 2.125 -0.04296875 C4 0.1875 4 0.1875 6 2.1875 C6 3.1775 6 4.1675 6 5.1875 C5.01 5.5175 4.02 5.8475 3 6.1875 C2.67 4.8675 2.34 3.5475 2 2.1875 C-1.60992379 2.84335189 -1.60992379 2.84335189 -5 4.1875 C-5.33 3.1975 -5.66 2.2075 -6 1.1875 C-3.77109005 0.07304502 -2.46944894 0.02269714 0 0 Z " fill="#EBC09C" transform="translate(70,16.8125)"/>
<path d="M0 0 C0 0.99 0 1.98 0 3 C-0.99 3 -1.98 3 -3 3 C-2.67 3.99 -2.34 4.98 -2 6 C-1.34 6.33 -0.68 6.66 0 7 C-0.33 7.66 -0.66 8.32 -1 9 C-2.65 8.01 -4.3 7.02 -6 6 C-5.6875 4.125 -5.6875 4.125 -5 2 C-2 0 -2 0 0 0 Z " fill="#F1CCA2" transform="translate(16,39)"/>
<path d="M0 0 C2.86724686 0.57344937 3.8614515 0.8614515 6 3 C6 4.32 6 5.64 6 7 C4.125 6.875 4.125 6.875 2 6 C0.75 2.9375 0.75 2.9375 0 0 Z " fill="#DBA57E" transform="translate(38,28)"/>
<path d="M0 0 C0.763125 0.20625 1.52625 0.4125 2.3125 0.625 C2.3125 1.285 2.3125 1.945 2.3125 2.625 C0.6625 2.625 -0.9875 2.625 -2.6875 2.625 C-2.3575 3.945 -2.0275 5.265 -1.6875 6.625 C-2.3475 6.625 -3.0075 6.625 -3.6875 6.625 C-3.6875 5.305 -3.6875 3.985 -3.6875 2.625 C-4.3475 2.295 -5.0075 1.965 -5.6875 1.625 C-2.6875 -0.375 -2.6875 -0.375 0 0 Z " fill="#F2D5A6" transform="translate(18.6875,8.375)"/>
<path d="M0 0 C1.13643966 3.40931897 0.86747764 4.00335456 -0.4375 7.1875 C-0.72496094 7.90292969 -1.01242188 8.61835938 -1.30859375 9.35546875 C-1.53675781 9.89816406 -1.76492187 10.44085938 -2 11 C-2.66 10.67 -3.32 10.34 -4 10 C-3.43454163 6.04179141 -2.19097652 3.3340947 0 0 Z " fill="#D69767" transform="translate(74,22)"/>
<path d="M0 0 C6.24675325 6.07792208 6.24675325 6.07792208 8 9 C7.67 9.99 7.34 10.98 7 12 C5.82767315 10.3790787 4.6622923 8.75313167 3.5 7.125 C2.8503125 6.22007813 2.200625 5.31515625 1.53125 4.3828125 C0 2 0 2 0 0 Z " fill="#DFAA82" transform="translate(34,6)"/>
<path d="M0 0 C3.65316671 1.24976756 4.78065836 1.67098753 7 5 C7 5.99 7 6.98 7 8 C6.34 8 5.68 8 5 8 C3.7109375 6.25 3.7109375 6.25 2.375 4 C1.92898437 3.2575 1.48296875 2.515 1.0234375 1.75 C0.68570312 1.1725 0.34796875 0.595 0 0 Z " fill="#E9BD99" transform="translate(25,27)"/>
<path d="M0 0 C1.7074998 1.28062485 3.37373596 2.61767557 5 4 C5 4.66 5 5.32 5 6 C5.66 6 6.32 6 7 6 C6.67 6.99 6.34 7.98 6 9 C4.99406757 7.8803014 3.9954151 6.7540588 3 5.625 C2.443125 4.99851562 1.88625 4.37203125 1.3125 3.7265625 C0 2 0 2 0 0 Z " fill="#E3B18E" transform="translate(47,24)"/>
</svg>
