<?xml version="1.0" encoding="UTF-8"?>
<svg version="1.1" xmlns="http://www.w3.org/2000/svg" width="800" height="800">
<path d="M0 0 C264 0 528 0 800 0 C800 264 800 528 800 800 C536 800 272 800 0 800 C0 536 0 272 0 0 Z " fill="#FEFEFE" transform="translate(0,0)"/>
<path d="M0 0 C1.24268143 0.00648056 1.24268143 0.00648056 2.51046753 0.01309204 C43.85991229 0.2657424 43.85991229 0.2657424 58.25 14.1796875 C61.29681767 17.87001407 64.0625 22.46406613 64.0625 27.375 C64.91215332 27.4174585 65.76180664 27.45991699 66.63720703 27.50366211 C96.82503955 29.29537853 136.38107079 37.34932612 158.703125 59.63671875 C168.19881741 70.65738163 175.28121911 84.02633887 175.375 98.9375 C175.271875 100.071875 175.16875 101.20625 175.0625 102.375 C175.82433594 102.47296875 176.58617187 102.5709375 177.37109375 102.671875 C189.0388189 104.36158301 198.17910963 107.78930887 205.6015625 117.359375 C210.35348449 124.52894151 211.37251402 131.27789549 211.36328125 139.7109375 C211.36756638 140.58972565 211.3718515 141.46851379 211.37626648 142.37393188 C211.38198374 144.22453962 211.38252935 146.07516981 211.37817383 147.92578125 C211.37501711 150.73477101 211.39849428 153.54270285 211.42382812 156.3515625 C211.42610194 158.15885285 211.42680423 159.96614601 211.42578125 161.7734375 C211.434991 162.6018515 211.44420074 163.4302655 211.45368958 164.28378296 C211.37871143 173.88450066 208.2127095 182.00307846 202.0625 189.375 C194.08873389 196.95255413 185.79112963 198.80306938 175.0625 199.375 C175.145 200.591875 175.2275 201.80875 175.3125 203.0625 C175.29009558 217.31171392 167.5372494 231.19717732 158.0625 241.375 C133.58123065 264.90470058 94.10173195 269.99618705 62.0625 274.375 C61.7325 275.695 61.4025 277.015 61.0625 278.375 C61.81789063 278.46652344 62.57328125 278.55804688 63.3515625 278.65234375 C82.06475041 282.29649087 109.20883388 291.21011479 121.93359375 306.64453125 C125.07495777 309.19797026 128.04903259 308.59080675 131.875 308.3125 C147.65685383 307.76812271 160.50628164 314.45043113 172.1875 324.75 C173.82082082 326.2828484 175.44605228 327.82436855 177.0625 329.375 C178.18785156 330.40560547 178.18785156 330.40560547 179.3359375 331.45703125 C195.66193401 346.89512268 206.91343323 368.67013318 215.0625 389.375 C215.39813965 390.21240723 215.7337793 391.04981445 216.07958984 391.91259766 C247.89466688 471.77143839 247.89466688 471.77143839 235.6875 502.87890625 C231.39134246 512.61151955 225.81673952 519.65809671 215.8125 523.875 C206.73841695 526.71381928 197.49728465 526.46316553 188.6953125 522.83203125 C174.48143927 514.96589666 166.82341577 500.60622907 162.203125 485.62109375 C158.99452192 474.11637281 157.08748959 462.30004479 154.9375 450.5625 C154.27339597 446.968369 153.60737634 443.37460171 152.93997192 439.78108215 C152.52805111 437.55990154 152.11830958 435.33831523 151.71115112 433.11625671 C150.61512179 427.17049076 149.41336636 421.26825999 148.0625 415.375 C147.90430786 416.38699463 147.90430786 416.38699463 147.74291992 417.41943359 C147.25239535 420.5307913 146.75126168 423.64035479 146.25 426.75 C146.08435547 427.81089844 145.91871094 428.87179687 145.74804688 429.96484375 C144.79569378 435.82271375 143.58018587 441.40550967 141.77905273 447.06005859 C141.10117577 449.25005157 140.54228581 451.4308455 140.02734375 453.6640625 C134.01048262 479.39907934 122.25000682 504.46939538 106.0625 525.375 C105.33417969 526.32632813 104.60585938 527.27765625 103.85546875 528.2578125 C83.12997518 554.47276113 53.33919068 573.99571972 19.81494141 578.68969727 C-15.34289411 582.62326778 -50.0077372 575.67373179 -78.27563477 553.64770508 C-81.57625265 550.97769787 -84.77913531 548.21134545 -87.9375 545.375 C-88.48631836 544.88273926 -89.03513672 544.39047852 -89.60058594 543.88330078 C-110.38168545 524.90785648 -125.04385473 498.8617514 -133.9375 472.375 C-134.34613281 471.26898437 -134.75476563 470.16296875 -135.17578125 469.0234375 C-137.93717114 461.54569143 -140.1484966 454.13666581 -141.9375 446.375 C-142.26907024 445.02951221 -142.60251989 443.68448666 -142.9375 442.33984375 C-143.29202647 440.8933173 -143.64619474 439.44670302 -144 438 C-144.16250244 437.35313232 -144.32500488 436.70626465 -144.49243164 436.03979492 C-146.12711778 429.22929523 -147.00894404 422.31124554 -147.9375 415.375 C-148.2617395 416.99619751 -148.2617395 416.99619751 -148.5925293 418.65014648 C-148.73674316 419.3711705 -148.88095703 420.09219452 -149.02954102 420.83506775 C-149.35602718 422.46759156 -149.68244107 424.10012983 -150.00878906 425.73268127 C-150.91605524 430.2706917 -151.82463171 434.80843345 -152.7355957 439.34570312 C-154.31885105 447.23730474 -155.90079863 455.12829207 -157.40625 463.03515625 C-161.55008691 484.71296557 -166.01120777 505.99043992 -184.4375 520.3125 C-192.35855804 525.41235928 -200.66144981 526.34793494 -209.9375 525.375 C-219.75676383 523.22423556 -226.60485052 518.22098239 -232.1875 509.9375 C-247.50760421 482.31108258 -234.19161332 448.37680437 -226.29296875 420.5234375 C-225.78184521 418.76469205 -225.26771712 417.00681582 -224.75 415.25 C-224.5245752 414.47591797 -224.29915039 413.70183594 -224.06689453 412.90429688 C-222.66331232 408.26034585 -220.90289129 403.91366101 -218.8815918 399.50537109 C-217.54281873 396.48439002 -216.50876178 393.37451352 -215.4375 390.25 C-207.28957772 367.80982061 -194.55551923 347.42764435 -177.9375 330.375 C-177.28523438 329.64925781 -176.63296875 328.92351562 -175.9609375 328.17578125 C-166.68135527 318.12619113 -152.56700582 309.23392603 -138.68310547 308.20849609 C-136.33022374 308.13642408 -133.97875973 308.09369499 -131.625 308.0625 C-124.46050671 307.93106881 -120.85056326 306.7877823 -115.5390625 301.6953125 C-103.09757804 290.59885338 -77.81637323 278.375 -60.9375 278.375 C-60.9375 277.055 -60.9375 275.735 -60.9375 274.375 C-61.77925781 274.36082031 -62.62101563 274.34664063 -63.48828125 274.33203125 C-97.17797188 273.03761946 -142.82303179 264.17791392 -166.9375 238.375 C-176.58680086 227.20415269 -180.64696272 213.81566711 -181.9375 199.375 C-182.5665625 199.21644531 -183.195625 199.05789063 -183.84375 198.89453125 C-193.15342896 196.3568025 -200.46266633 192.54663601 -205.9375 184.375 C-209.81076497 177.06158275 -211.10106483 170.91651425 -211.17578125 162.65625 C-211.183853 161.80252808 -211.19192474 160.94880615 -211.20024109 160.06921387 C-211.21405916 158.26035577 -211.22479148 156.45147186 -211.23266602 154.64257812 C-211.24413279 152.81177001 -211.26449956 150.9809939 -211.29418945 149.15039062 C-211.71122199 123.41086271 -211.71122199 123.41086271 -202.8125 113.9375 C-196.77808355 107.75396288 -190.45695143 104.57092878 -181.9375 103.375 C-181.84774902 102.77139648 -181.75799805 102.16779297 -181.66552734 101.54589844 C-178.51162437 80.94144638 -172.88592964 65.68427806 -155.9375 52.375 C-153.13234903 50.5146349 -150.24054901 48.9166741 -147.25 47.375 C-146.43257324 46.95130127 -145.61514648 46.52760254 -144.77294922 46.09106445 C-126.91689204 37.13932264 -106.66097591 31.81352314 -86.8984375 29.30859375 C-85.48674146 29.1192102 -84.07512038 28.92926702 -82.66357422 28.73876953 C-79.88956224 28.36528805 -77.11753341 28.05479578 -74.33251953 27.77685547 C-67.38466625 27.08971323 -67.38466625 27.08971323 -62.04663086 23.10424805 C-60.70513112 20.493594 -60.70513112 20.493594 -59.85717773 17.8359375 C-57.78720516 12.29696125 -53.08910789 9.40451773 -47.94140625 6.94140625 C-32.54156357 0.94169875 -16.36535528 -0.16264142 0 0 Z " fill="#D4D9E0" transform="translate(399.9375,71.625)"/>
<path d="M0 0 C1.13334778 -0.00067474 2.26669556 -0.00134949 3.43438721 -0.00204468 C39.13154796 0.0314306 77.04531567 1.16576823 111.3125 12.25 C112.08207031 12.49476074 112.85164063 12.73952148 113.64453125 12.99169922 C130.69592063 18.46922887 147.53584043 24.30381352 156.98828125 40.52734375 C160.3255449 47.38891532 161.75887098 52.77085467 161.71655273 60.3371582 C161.72684761 61.64376907 161.72684761 61.64376907 161.73735046 62.97677612 C161.75553904 65.83494723 161.75179151 68.69256509 161.74609375 71.55078125 C161.75066012 73.55323971 161.75596705 75.5556966 161.76197815 77.55815125 C161.77089428 81.74838642 161.76850407 85.93843086 161.75854492 90.12866211 C161.74707125 95.47478181 161.76725006 100.8202394 161.79646206 106.16627216 C161.8148905 110.30065534 161.81451815 114.4348819 161.80882454 118.56929588 C161.80867206 120.53909418 161.81465499 122.5089036 161.82711601 124.47866249 C161.90243101 138.33753873 160.92547761 149.79865477 152.3125 161.25 C151.879375 161.83265625 151.44625 162.4153125 151 163.015625 C135.46116355 180.98240464 102.06614079 185.93489779 80.02011108 189.54388428 C78.10859899 189.85719958 76.19841749 190.17860155 74.28833008 190.50048828 C50.90318031 194.16180712 27.29044999 194.58543409 3.67333984 194.51074219 C0.01859836 194.4992625 -3.63585444 194.5061848 -7.29058647 194.51762867 C-22.19234647 194.55715673 -36.9451618 194.38352163 -51.75158691 192.49053955 C-54.51375324 192.14733703 -57.28303428 191.89794213 -60.0546875 191.64453125 C-86.96985071 188.90674928 -127.22415662 183.96503032 -146.90234375 162.69921875 C-153.42467592 153.7506361 -156.82284783 144.67421995 -156.88037109 133.6328125 C-156.89263733 132.32948723 -156.89263733 132.32948723 -156.90515137 130.99983215 C-156.92995538 128.12489499 -156.94651306 125.25000722 -156.9609375 122.375 C-156.96626118 121.38968292 -156.97158485 120.40436584 -156.97706985 119.38919067 C-157.00378609 114.16881082 -157.02316161 108.9484547 -157.03759766 103.72802734 C-157.05090719 99.42344778 -157.07870707 95.11934559 -157.11962891 90.81494141 C-157.169165 85.60367082 -157.19374489 80.39283138 -157.20082474 75.18133545 C-157.20750407 73.20395195 -157.22263864 71.22657681 -157.24671555 69.24932861 C-157.42257931 53.92674225 -155.73511455 41.82919433 -144.6875 30.25 C-123.27719965 10.36900682 -87.07048388 6.30388309 -59.3125 3 C-58.61650696 2.91673462 -57.92051392 2.83346924 -57.20343018 2.74768066 C-38.1586815 0.50765198 -19.16598626 0.01034824 0 0 Z " fill="#142D3C" transform="translate(397.6875,136.75)"/>
<path d="M0 0 C-4.10334724 31.55770148 -17.4259059 62.92468991 -37 88 C-37.72703125 88.94875 -38.4540625 89.8975 -39.203125 90.875 C-59.91410293 117.09897205 -89.72930293 136.62155893 -123.24755859 141.31469727 C-158.40539411 145.24826778 -193.0702372 138.29873179 -221.33813477 116.27270508 C-224.63875265 113.60269787 -227.84163531 110.83634545 -231 108 C-231.82322754 107.26160889 -231.82322754 107.26160889 -232.66308594 106.50830078 C-253.44418545 87.53285648 -268.10635473 61.4867514 -277 35 C-277.40863281 33.89398437 -277.81726563 32.78796875 -278.23828125 31.6484375 C-281.94708056 21.60514024 -284.97259128 11.6850507 -286 1 C-279.49975728 2.38163054 -273.13173241 4.02574133 -266.75 5.875 C-265.82106934 6.14111084 -264.89213867 6.40722168 -263.93505859 6.68139648 C-259.13628104 8.06316681 -254.37228289 9.51172092 -249.625 11.0625 C-236.73640777 15.09968682 -223.23377031 17.3749209 -210 20 C-210 25.61 -210 31.22 -210 37 C-169.75160787 43.17361785 -130.21495139 45.41225606 -89.80883789 38.96557617 C-88.6156897 38.77765503 -88.6156897 38.77765503 -87.3984375 38.5859375 C-86.71442871 38.4729834 -86.03041992 38.3600293 -85.32568359 38.24365234 C-82.23298782 37.91964328 -79.109622 38 -76 38 C-76 32.06 -76 26.12 -76 20 C-73.52113281 19.45472656 -71.04226563 18.90945313 -68.48828125 18.34765625 C-46.87338769 13.53950753 -25.72155956 8.13454092 -4.77758789 0.88452148 C-2 0 -2 0 0 0 Z " fill="#BBBFC8" transform="translate(543,509)"/>
<path d="M0 0 C16.79427927 -1.07197527 30.42856462 3.26777048 43.58203125 14.1328125 C46.11435243 16.36561182 48.56380453 18.66299816 51 21 C51.75023437 21.68707031 52.50046875 22.37414062 53.2734375 23.08203125 C69.59943401 38.52012268 80.85093323 60.29513318 89 81 C89.33563965 81.83740723 89.6712793 82.67481445 90.01708984 83.53759766 C121.83216688 163.39643839 121.83216688 163.39643839 109.625 194.50390625 C105.32884246 204.23651955 99.75423952 211.28309671 89.75 215.5 C80.67591695 218.33881928 71.43478465 218.08816553 62.6328125 214.45703125 C48.4128648 206.58753497 40.75699806 192.22171412 36.13671875 177.23046875 C32.95259824 165.81290675 31.06480902 154.08720089 28.9375 142.4375 C28.28432737 138.88440556 27.62913967 135.33170453 26.97084045 131.77955627 C26.56459286 129.58512372 26.16138598 127.39012495 25.76194763 125.19444275 C24.56774452 118.7154143 23.16324706 112.32649372 21.55987549 105.93563843 C20.66263147 101.23104952 21.19219401 96.8968298 21.8125 92.1875 C24.76100281 64.05632986 26.3502836 34.80822532 7.8125 11.4375 C6.54868895 9.95232896 5.27799271 8.47298541 4 7 C0 2.2600349 0 2.2600349 0 0 Z " fill="#CED2DB" transform="translate(526,380)"/>
<path d="M0 0 C0 3 0 3 -1.21484375 4.33203125 C-1.78332031 4.82058594 -2.35179687 5.30914062 -2.9375 5.8125 C-14.12382572 16.59040004 -22.81596804 33.80260589 -23.24291992 49.42138672 C-23.24927428 51.00747968 -23.24467375 52.59364542 -23.23046875 54.1796875 C-23.23001053 55.03249298 -23.22955231 55.88529846 -23.2290802 56.76394653 C-23.22607685 58.55732627 -23.21824859 60.35070385 -23.20581055 62.14404297 C-23.18759757 64.86044776 -23.18530104 67.5765093 -23.18554688 70.29296875 C-23.18062844 72.04687789 -23.1747987 73.80078476 -23.16796875 75.5546875 C-23.16685593 76.35292938 -23.1657431 77.15117126 -23.16459656 77.97360229 C-23.12360245 82.94861069 -22.76827267 87.8247458 -22.23735046 92.77087402 C-21.00687394 104.32714877 -23.30397859 114.94814356 -25.6875 126.1875 C-26.05877163 127.97699125 -26.42896146 129.76670726 -26.7980957 131.55664062 C-27.34951437 134.22765863 -27.90215697 136.8983764 -28.45988464 139.56808472 C-29.7353414 145.6741488 -30.93249215 151.79042159 -32.09667969 157.91870117 C-36.05390047 178.5567522 -41.06322679 198.38455562 -58.5 211.9375 C-66.42105804 217.03735928 -74.72394981 217.97293494 -84 217 C-93.81926383 214.84923556 -100.66735052 209.84598239 -106.25 201.5625 C-121.57010421 173.93608258 -108.25411332 140.00180437 -100.35546875 112.1484375 C-99.84434521 110.38969205 -99.33021712 108.63181582 -98.8125 106.875 C-98.5870752 106.10091797 -98.36165039 105.32683594 -98.12939453 104.52929688 C-96.72581232 99.88534585 -94.96539129 95.53866101 -92.9440918 91.13037109 C-91.60531873 88.10939002 -90.57126178 84.99951352 -89.5 81.875 C-81.35207772 59.43482061 -68.61801923 39.05264435 -52 22 C-51.34773438 21.27425781 -50.69546875 20.54851562 -50.0234375 19.80078125 C-36.74766716 5.42340443 -19.34688912 -1.23490782 0 0 Z " fill="#C2C6D0" transform="translate(274,380)"/>
<path d="M0 0 C1.2065625 0.0309375 1.2065625 0.0309375 2.4375 0.0625 C2.5548794 3.56221199 2.62513961 7.06140955 2.6875 10.5625 C2.72101563 11.54476563 2.75453125 12.52703125 2.7890625 13.5390625 C2.89245733 21.29367467 1.36846871 26.26119997 -3.3515625 32.3828125 C-19.02321083 47.78770937 -40.27323168 51.50782324 -61.52099609 51.42382812 C-79.73158381 51.1266797 -98.59487936 46.75709406 -112.0859375 33.65234375 C-118.34534285 26.91271947 -119.9111926 21.95669598 -119.875 12.9375 C-119.89111328 12.12667969 -119.90722656 11.31585938 -119.92382812 10.48046875 C-119.92447266 9.70058594 -119.92511719 8.92070312 -119.92578125 8.1171875 C-119.92876221 7.41062012 -119.93174316 6.70405273 -119.93481445 5.97607422 C-119.44445167 3.45577029 -118.54541815 2.65986979 -116.5625 1.0625 C-113.44552849 0.99946365 -110.52740448 1.12256002 -107.4296875 1.3671875 C-96.3022662 2.04326935 -85.21371941 2.18921571 -74.0703125 2.1953125 C-72.77659855 2.1964719 -72.77659855 2.1964719 -71.45674896 2.19765472 C-67.0144503 2.20060589 -62.57217837 2.19863356 -58.12988281 2.19287109 C-53.53787357 2.18707898 -48.94592158 2.19052774 -44.35391426 2.19644356 C-40.79732827 2.20003987 -37.24075615 2.19891655 -33.68416977 2.19631577 C-31.98801542 2.19564879 -30.29185982 2.19646692 -28.59570694 2.19879532 C-26.25143259 2.20131662 -23.90725533 2.19749317 -21.56298828 2.19189453 C-20.86400925 2.19391876 -20.16503021 2.19594299 -19.44487 2.19802856 C-16.22484337 2.45560923 -16.22484337 2.45560923 -13.5625 1.0625 C-10.97432747 0.99060632 -8.4007749 1.06617557 -5.8125 1.125 C-2.98934436 1.04657901 -2.93456513 0.07157476 0 0 Z " fill="#B6BAC5" transform="translate(458.5625,344.9375)"/>
<path d="M0 0 C4.51265974 3.03736713 7.30094248 5.80843536 9 11 C9.87476094 17.89117232 9.74314212 23.49808767 5.546875 29.203125 C1.68479148 33.68938363 -2.53484038 37.62213411 -7 41.5 C-23.79221005 56.13275118 -32.8489932 73.88460352 -39 95 C-41.21668265 102.56279962 -41.21668265 102.56279962 -44.6875 104.5 C-45.450625 104.665 -46.21375 104.83 -47 105 C-53.4382033 99.57621949 -54.4853608 90.5036622 -55.23632812 82.47265625 C-56.65152579 58.6471765 -49.97120292 36.68478923 -34.1953125 18.41796875 C-25.85914095 9.1163084 -13.55168054 -4.01531275 0 0 Z " fill="#F1F2F6" transform="translate(323,376)"/>
<path d="M0 0 C11.58857337 0 19.47286739 2.3233879 27.8671875 10.48828125 C32.86596673 16.37512199 36.08446621 23.30126308 36.16113281 31.07495117 C36.17074036 31.86645065 36.1803479 32.65795013 36.19024658 33.47343445 C36.19449646 34.32138077 36.19874634 35.16932709 36.203125 36.04296875 C36.20882507 36.92600174 36.21452515 37.80903473 36.22039795 38.71882629 C36.22983483 40.5873597 36.23637672 42.45590964 36.24023438 44.32446289 C36.2499061 47.1599702 36.28092775 49.99474183 36.3125 52.83007812 C36.31903417 54.65103739 36.32428301 56.47200181 36.328125 58.29296875 C36.3404718 59.13079391 36.3528186 59.96861908 36.36553955 60.83183289 C36.32969428 70.47378995 33.17721485 78.59570861 27 86 C18.81925847 93.77424506 11.34114596 94.96898673 0 96 C0 64.32 0 32.64 0 0 Z " fill="#C5C9D2" transform="translate(575,175)"/>
<path d="M0 0 C0 31.02 0 62.04 0 94 C-10.71520814 92.80942132 -16.68834088 90.52739215 -23.49609375 82.1875 C-28.69825518 74.62071974 -30.15654165 67.31796138 -30.23828125 58.28125 C-30.246353 57.42752808 -30.25442474 56.57380615 -30.26274109 55.69421387 C-30.27655916 53.88535577 -30.28729148 52.07647186 -30.29516602 50.26757812 C-30.30663279 48.43677001 -30.32699956 46.6059939 -30.35668945 44.77539062 C-30.77372199 19.03586271 -30.77372199 19.03586271 -21.875 9.5625 C-15.15130046 2.69503715 -9.62939013 0 0 0 Z " fill="#BFC3CD" transform="translate(219,176)"/>
<path d="M0 0 C-0.33 2.31 -0.66 4.62 -1 7 C-15.90179141 12.03903643 -30.77320785 16.99735119 -46.125 20.5 C-47.1341748 20.73025879 -48.14334961 20.96051758 -49.18310547 21.19775391 C-56.41377653 22.781296 -63.67696199 23.92688181 -71 25 C-71 30.61 -71 36.22 -71 42 C-80.43980498 44.33163849 -89.78549514 45.98262806 -99.4375 47.125 C-100.5047229 47.2524057 -100.5047229 47.2524057 -101.59350586 47.38238525 C-139.03314391 51.78259113 -178.261834 51.1845415 -215 42 C-215 36.39 -215 30.78 -215 25 C-216.87558594 24.83177734 -216.87558594 24.83177734 -218.7890625 24.66015625 C-224.43125639 24.0277466 -229.86478408 22.78125167 -235.375 21.4375 C-236.44556641 21.17864014 -237.51613281 20.91978027 -238.61914062 20.65307617 C-282.0758492 9.9241508 -282.0758492 9.9241508 -286 6 C-286.04063832 4.33382885 -286.042721 2.66611905 -286 1 C-279.49975728 2.38163054 -273.13173241 4.02574133 -266.75 5.875 C-265.82106934 6.14111084 -264.89213867 6.40722168 -263.93505859 6.68139648 C-259.13628104 8.06316681 -254.37228289 9.51172092 -249.625 11.0625 C-236.73640777 15.09968682 -223.23377031 17.3749209 -210 20 C-210 25.61 -210 31.22 -210 37 C-169.75160787 43.17361785 -130.21495139 45.41225606 -89.80883789 38.96557617 C-88.6156897 38.77765503 -88.6156897 38.77765503 -87.3984375 38.5859375 C-86.71442871 38.4729834 -86.03041992 38.3600293 -85.32568359 38.24365234 C-82.23298782 37.91964328 -79.109622 38 -76 38 C-76 32.06 -76 26.12 -76 20 C-73.52113281 19.45472656 -71.04226563 18.90945313 -68.48828125 18.34765625 C-46.87338769 13.53950753 -25.72155956 8.13454092 -4.77758789 0.88452148 C-2 0 -2 0 0 0 Z " fill="#A8ACB5" transform="translate(543,509)"/>
<path d="M0 0 C2.38435038 3.29601376 2.70978963 4.94306578 2.7890625 8.875 C1.70431552 12.2440965 -0.13919005 13.73524461 -2.875 15.9375 C-5.59947843 17.06642753 -8.38004399 17.71788619 -11.25 18.375 C-28.8371331 22.86096752 -44.97216371 30.11608641 -58.875 41.9375 C-59.61878906 42.56011719 -60.36257812 43.18273437 -61.12890625 43.82421875 C-64.17755531 46.4256599 -66.63761475 48.58142212 -68.875 51.9375 C-71.4375 52.1875 -71.4375 52.1875 -73.875 51.9375 C-74.205 51.6075 -74.535 51.2775 -74.875 50.9375 C-74.875 39.3553649 -67.53928826 28.47735675 -59.7109375 20.4609375 C-48.17271909 10.19414812 -14.81407767 -10.62749051 0 0 Z " fill="#EFF0F4" transform="translate(305.875,118.0625)"/>
<path d="M0 0 C6.81855079 3.0061747 12.2083316 9.27202272 15.01171875 16.046875 C16.32426299 24.9065486 16.32426299 24.9065486 14.08032227 29.09130859 C10.2870384 32.53306202 7.00163181 32.14245847 2.0390625 32.0859375 C1.11960342 32.09072113 0.20014435 32.09550476 -0.74717712 32.10043335 C-2.68799554 32.10383156 -4.62887126 32.09463462 -6.56958008 32.07373047 C-9.54442447 32.04693226 -12.51550637 32.07349565 -15.49023438 32.10546875 C-17.37631043 32.10216524 -19.26238413 32.09576021 -21.1484375 32.0859375 C-22.48443748 32.10111923 -22.48443748 32.10111923 -23.84742737 32.11660767 C-26.17059767 32.07237242 -28.23562552 31.9919439 -30.48828125 31.421875 C-33.6307666 27.73566313 -34.08604766 24.58467947 -33.890625 19.88671875 C-32.73633016 12.81526199 -29.36926603 7.75129283 -23.80078125 3.359375 C-16.74562614 -1.68002151 -8.41632758 -1.95544189 0 0 Z " fill="#68E4F2" transform="translate(484.48828125,212.578125)"/>
<path d="M0 0 C5.65999038 3.34754295 10.97778871 8.95320378 13.3828125 15.125 C13.68359375 18.25390625 13.68359375 18.25390625 13.6953125 21.6875 C13.71207031 22.82316406 13.72882813 23.95882812 13.74609375 25.12890625 C13.3828125 28.125 13.3828125 28.125 12.1640625 30.01171875 C9.82825959 31.47159557 8.31110238 31.45920245 5.5703125 31.375 C4.22839844 31.33632812 4.22839844 31.33632812 2.859375 31.296875 C0.3828125 31.125 0.3828125 31.125 -2.5546875 30.625 C-9.29663262 29.52427427 -15.92128007 29.96049436 -22.6171875 31.125 C-25.68317133 31.45444714 -28.56534759 31.63363998 -31.6171875 31.125 C-34.47785562 28.4377057 -34.84244841 25.71683775 -35.1171875 21.9375 C-34.87175251 15.53484801 -32.19566082 9.91642759 -27.8671875 5.23046875 C-20.12676152 -1.62581374 -9.94932718 -3.32634222 0 0 Z " fill="#69E5F3" transform="translate(334.6171875,212.875)"/>
<path d="M0 0 C0.77915771 0.00202423 1.55831543 0.00404846 2.36108398 0.00613403 C3.15635498 0.00517731 3.95162598 0.00422058 4.77099609 0.00323486 C6.45564859 0.0025531 8.1403037 0.00440711 9.82495117 0.00857544 C12.41257595 0.01392378 15.00002714 0.00863034 17.58764648 0.00222778 C19.22045937 0.00288857 20.85327215 0.00416973 22.48608398 0.00613403 C23.2652417 0.0041098 24.04439941 0.00208557 24.84716797 0 C30.30863294 0.02399549 30.30863294 0.02399549 31.42358398 1.13894653 C31.8361011 6.39853981 31.24002461 9.67148898 28.42358398 14.13894653 C24.5481465 18.64283334 20.88617553 21.65567072 14.87670898 22.49441528 C8.99980236 22.79475443 4.88777594 22.10697024 0.07983398 18.63894653 C-3.25759163 15.61637239 -5.16674041 12.36797335 -6.57641602 8.13894653 C-6.70141602 4.51394653 -6.70141602 4.51394653 -6.57641602 1.13894653 C-4.78811153 -0.64935795 -2.3806045 0.01045942 0 0 Z " fill="#54DFEE" transform="translate(387.576416015625,272.8610534667969)"/>
<path d="M0 0 C0.66 0.33 1.32 0.66 2 1 C-1.63 4.63 -5.26 8.26 -9 12 C-9 8.47601214 -8.44884893 7.98495633 -6.1875 5.4375 C-5.40439453 4.53837891 -5.40439453 4.53837891 -4.60546875 3.62109375 C-3 2 -3 2 0 0 Z " fill="#152530" transform="translate(258,163)"/>
<path d="M0 0 C0 0.66 0 1.32 0 2 C-1.75 3.7265625 -1.75 3.7265625 -4 5.625 C-4.7425 6.25664062 -5.485 6.88828125 -6.25 7.5390625 C-6.8275 8.02117187 -7.405 8.50328125 -8 9 C-8.66 8.67 -9.32 8.34 -10 8 C-3.94594595 0 -3.94594595 0 0 0 Z " fill="#55D5E4" transform="translate(465,214)"/>
<path d="M0 0 C0 3 0 3 -1.53125 4.82421875 C-2.1809375 5.43910156 -2.830625 6.05398437 -3.5 6.6875 C-4.1496875 7.31011719 -4.799375 7.93273437 -5.46875 8.57421875 C-5.9740625 9.04472656 -6.479375 9.51523438 -7 10 C-7 5.69032084 -4.83274712 4.10253255 -2 1 C-1.34 0.67 -0.68 0.34 0 0 Z " fill="#54D5E3" transform="translate(311,215)"/>
</svg>
